<?xml version="1.0" standalone="no"?><!DOCTYPE svg PUBLIC "-//W3C//DTD SVG 1.1//EN" "http://www.w3.org/Graphics/SVG/1.1/DTD/svg11.dtd"><svg t="1610954910163" class="icon" viewBox="0 0 1024 1024" version="1.1" xmlns="http://www.w3.org/2000/svg" p-id="2546" xmlns:xlink="http://www.w3.org/1999/xlink" width="128" height="128"><defs><style type="text/css"></style></defs><path d="M912 106.666667H519.573333a5.333333 5.333333 0 0 0-3.786666 1.6l-405.333334 405.333333a5.333333 5.333333 0 0 0 0 7.573333l392.426667 392.426667a5.333333 5.333333 0 0 0 7.52 0l405.333333-405.333333a5.333333 5.333333 0 0 0 1.6-3.786667V112a5.333333 5.333333 0 0 0-5.333333-5.333333z m-69.333333 366.826666a5.333333 5.333333 0 0 1-1.6 3.786667l-330.666667 330.666667a5.333333 5.333333 0 0 1-7.52 0L216 521.173333a5.333333 5.333333 0 0 1 0-7.573333l330.666667-330.666667a5.333333 5.333333 0 0 1 3.786666-1.6H837.333333a5.333333 5.333333 0 0 1 5.333334 5.333334z" p-id="2547"></path><path d="M664.693333 239.306667a120 120 0 1 0 84.853334 35.146666 119.84 119.84 0 0 0-84.853334-35.146666z m32 152.053333a45.333333 45.333333 0 0 1-64 0 45.333333 45.333333 0 1 1 64 0z" p-id="2548"></path></svg>